<svg xmlns="http://www.w3.org/2000/svg" width="358.4" height="358.4" viewBox="0 0 358.4 358.4" xmlns:c2pa="http://c2pa.org/manifest"><metadata><c2pa:manifest>AAAWgmp1bWIAAAAeanVtZGMycGEAEQAQgAAAqgA4m3EDYzJwYQAAABZcanVtYgAAAEdqdW1kYzJtYQARABCAAACqADibcQN1cm46YzJwYTpiNTc3ZDkxMi0xOTRlLTQ0ZDMtOTNkMi0xZjNlYTcwOGM4MmMAAAADl2p1bWIAAAApanVtZGMyYXMAEQAQgAAAqgA4m3EDYzJwYS5hc3NlcnRpb25zAAAAALxqdW1iAAAARGp1bWRjYm9yABEAEIAAAKoAOJtxE2MycGEuaW5ncmVkaWVudC52MwAAAAAYYzJzaLjoS62FMlu1iv7OH8dZnJYAAABwY2JvcqNpZGM6Zm9ybWF0bWltYWdlL3N2Zyt4bWxqaW5zdGFuY2VJRHgseG1wOmlpZDozY2UyYzZhNC00MTYxLTQxMjEtYTk3My01MjE0YzNjMTBmZDVscmVsYXRpb25zaGlwaHBhcmVudE9mAAAB4mp1bWIAAABBanVtZGNib3IAEQAQgAAAqgA4m3ETYzJwYS5hY3Rpb25zLnYyAAAAABhjMnNoP/SWbmlv8szCX4gjTlGjKwAAAZljYm9yomdhY3Rpb25zgqJmYWN0aW9ua2MycGEub3BlbmVkanBhcmFtZXRlcnOha2luZ3JlZGllbnRzgaJjdXJseC1zZWxmI2p1bWJmPWMycGEuYXNzZXJ0aW9ucy9jMnBhLmluZ3JlZGllbnQudjNkaGFzaFggDC0zAhfOpPtJZoUz8/HBP6J8AbXjIo8SUJoUNWU+wq+kZmFjdGlvbngdY29tLmFudGhyb3BpYy5jbGF1ZGUucHJvdmlkZWRqcGFyYW1ldGVyc6F4H2NvbS5hbnRocm9waWMub3JpZ2luLWNvbmZpZGVuY2VndW5rbm93bmtkZXNjcmlwdGlvbnhmQ2xhdWRlIHByb3ZpZGVkIHRoaXMgZmlsZSBhdCB0aGUgcmVxdWVzdCBvZiBhIHVzZXIgYW5kIG1heSBoYXZlIGNyZWF0ZWQgb3IgbW9kaWZpZWQgdGhlIGZpbGUgY29udGVudHMubXNvZnR3YXJlQWdlbnShZG5hbWVmQ2xhdWRlcmFsbEFjdGlvbnNJbmNsdWRlZPUAAADIanVtYgAAAEBqdW1kY2JvcgARABCAAACqADibcRNjMnBhLmhhc2guZGF0YQAAAAAYYzJzaCK+BsAreoxGbZSH/iTu3AUAAACAY2JvcqVjYWxnZnNoYTI1NmNwYWRNAAAAAAAAAAAAAAAAAGRoYXNoWCCkXDFdKNEOLSYiZqrXrjRvBn7Kt3shQseB8AlVxcQ8TWRuYW1lbmp1bWJmIG1hbmlmZXN0amV4Y2x1c2lvbnOBomVzdGFydBieZmxlbmd0aBkeBAAAAj5qdW1iAAAAJ2p1bWRjMmNsABEAEIAAAKoAOJtxA2MycGEuY2xhaW0udjIAAAACD2Nib3KlY2FsZ2ZzaGEyNTZpc2lnbmF0dXJleE1zZWxmI2p1bWJmPS9jMnBhL3VybjpjMnBhOmI1NzdkOTEyLTE5NGUtNDRkMy05M2QyLTFmM2VhNzA4YzgyYy9jMnBhLnNpZ25hdHVyZWppbnN0YW5jZUlEeCx4bXA6aWlkOjdlYWE5ZDU1LWE2MzUtNDhkOS1iZjZkLTUxMTkwNWUxZDBkOHJjcmVhdGVkX2Fzc2VydGlvbnODomN1cmx4LXNlbGYjanVtYmY9YzJwYS5hc3NlcnRpb25zL2MycGEuaW5ncmVkaWVudC52M2RoYXNoWCAMLTMCF86k+0lmhTPz8cE/onwBteMijxJQmhQ1ZT7Cr6JjdXJseCpzZWxmI2p1bWJmPWMycGEuYXNzZXJ0aW9ucy9jMnBhLmFjdGlvbnMudjJkaGFzaFggYTqjJjgLpnf5QR/azpgus3Hq/XJNPaxOMRr638fudsaiY3VybHgpc2VsZiNqdW1iZj1jMnBhLmFzc2VydGlvbnMvYzJwYS5oYXNoLmRhdGFkaGFzaFggFD1zrOkzuisINeAN/oADK7Tui6ViZyYt5tnJqetlsxh0Y2xhaW1fZ2VuZXJhdG9yX2luZm+jZG5hbWVvQW50aHJvcGljIEZpbGVzZ3ZlcnNpb25lMS4wLjBrc3BlY1ZlcnNpb25lMi40LjAAABA4anVtYgAAAChqdW1kYzJjcwARABCAAACqADibcQNjMnBhLnNpZ25hdHVyZQAAABAIY2JvctKEWQISogEmGCFZAgowggIGMIIBjaADAgECAhRA5aAK7sI50L64g/oGQgU9Z1UTADAKBggqhkjOPQQDAzBJMRcwFQYDVQQKEw5BbnRocm9waWMsIFBCQzEuMCwGA1UEAxMlQW50aHJvcGljIENvbnRlbnQgQ3JlZGVudGlhbHMgUm9vdCBDQTAeFw0yNjA4MDcxODQzNTZaFw0yODA4MDYxOTQzNTZaMEQxFzAVBgNVBAoTDkFudGhyb3BpYywgUEJDMSkwJwYDVQQDEyBBbnRocm9waWMgQ2xhdWRlIENvbnRlbnQgU2lnbmluZzBZMBMGByqGSM49AgEGCCqGSM49AwEHA0IABJh6CmvLUBgFFNU0vUKlOVtE6djd17L5SuwX0LemFisBM3dkd/3cyjxFA3Qo5S46fX0/ihY0VZ7mfb9KF703t5OjWDBWMA4GA1UdDwEB/wQEAwIHgDAVBgNVHSUEDjAMBgorBgEEAYPoXgIBMAwGA1UdEwEB/wQCMAAwHwYDVR0jBBgwFoAUzlHiBIFOZFsj+OPEz5o+nMHXXMIwCgYIKoZIzj0EAwMDZwAwZAIwMXMdFJ4BetLLVY7ORuE9noqbbAZOZn/aArXyTwFAZfKrPzxF2vPoJNf1+UCdg1XGAjBwX1zd9WGqYkqmL5SFqw1QySjr1zJfpJM9+1rdDwSPLMOPOjKuiXjoU/pUUeG9RwmhY3BhZFkNngAAAAAAAAAAAAAAAAAAAAAAAAAAAAAAAAAAAAAAAAAAAAAAAAAAAAAAAAAAAAAAAAAAAAAAAAAAAAAAAAAAAAAAAAAAAAAAAAAAAAAAAAAAAAAAAAAAAAAAAAAAAAAAAAAAAAAAAAAAAAAAAAAAAAAAAAAAAAAAAAAAAAAAAAAAAAAAAAAAAAAAAAAAAAAAAAAAAAAAAAAAAAAAAAAAAAAAAAAAAAAAAAAAAAAAAAAAAAAAAAAAAAAAAAAAAAAAAAAAAAAAAAAAAAAAAAAAAAAAAAAAAAAAAAAAAAAAAAAAAAAAAAAAAAAAAAAAAAAAAAAAAAAAAAAAAAAAAAAAAAAAAAAAAAAAAAAAAAAAAAAAAAAAAAAAAAAAAAAAAAAAAAAAAAAAAAAAAAAAAAAAAAAAAAAAAAAAAAAAAAAAAAAAAAAAAAAAAAAAAAAAAAAAAAAAAAAAAAAAAAAAAAAAAAAAAAAAAAAAAAAAAAAAAAAAAAAAAAAAAAAAAAAAAAAAAAAAAAAAAAAAAAAAAAAAAAAAAAAAAAAAAAAAAAAAAAAAAAAAAAAAAAAAAAAAAAAAAAAAAAAAAAAAAAAAAAAAAAAAAAAAAAAAAAAAAAAAAAAAAAAAAAAAAAAAAAAAAAAAAAAAAAAAAAAAAAAAAAAAAAAAAAAAAAAAAAAAAAAAAAAAAAAAAAAAAAAAAAAAAAAAAAAAAAAAAAAAAAAAAAAAAAAAAAAAAAAAAAAAAAAAAAAAAAAAAAAAAAAAAAAAAAAAAAAAAAAAAAAAAAAAAAAAAAAAAAAAAAAAAAAAAAAAAAAAAAAAAAAAAAAAAAAAAAAAAAAAAAAAAAAAAAAAAAAAAAAAAAAAAAAAAAAAAAAAAAAAAAAAAAAAAAAAAAAAAAAAAAAAAAAAAAAAAAAAAAAAAAAAAAAAAAAAAAAAAAAAAAAAAAAAAAAAAAAAAAAAAAAAAAAAAAAAAAAAAAAAAAAAAAAAAAAAAAAAAAAAAAAAAAAAAAAAAAAAAAAAAAAAAAAAAAAAAAAAAAAAAAAAAAAAAAAAAAAAAAAAAAAAAAAAAAAAAAAAAAAAAAAAAAAAAAAAAAAAAAAAAAAAAAAAAAAAAAAAAAAAAAAAAAAAAAAAAAAAAAAAAAAAAAAAAAAAAAAAAAAAAAAAAAAAAAAAAAAAAAAAAAAAAAAAAAAAAAAAAAAAAAAAAAAAAAAAAAAAAAAAAAAAAAAAAAAAAAAAAAAAAAAAAAAAAAAAAAAAAAAAAAAAAAAAAAAAAAAAAAAAAAAAAAAAAAAAAAAAAAAAAAAAAAAAAAAAAAAAAAAAAAAAAAAAAAAAAAAAAAAAAAAAAAAAAAAAAAAAAAAAAAAAAAAAAAAAAAAAAAAAAAAAAAAAAAAAAAAAAAAAAAAAAAAAAAAAAAAAAAAAAAAAAAAAAAAAAAAAAAAAAAAAAAAAAAAAAAAAAAAAAAAAAAAAAAAAAAAAAAAAAAAAAAAAAAAAAAAAAAAAAAAAAAAAAAAAAAAAAAAAAAAAAAAAAAAAAAAAAAAAAAAAAAAAAAAAAAAAAAAAAAAAAAAAAAAAAAAAAAAAAAAAAAAAAAAAAAAAAAAAAAAAAAAAAAAAAAAAAAAAAAAAAAAAAAAAAAAAAAAAAAAAAAAAAAAAAAAAAAAAAAAAAAAAAAAAAAAAAAAAAAAAAAAAAAAAAAAAAAAAAAAAAAAAAAAAAAAAAAAAAAAAAAAAAAAAAAAAAAAAAAAAAAAAAAAAAAAAAAAAAAAAAAAAAAAAAAAAAAAAAAAAAAAAAAAAAAAAAAAAAAAAAAAAAAAAAAAAAAAAAAAAAAAAAAAAAAAAAAAAAAAAAAAAAAAAAAAAAAAAAAAAAAAAAAAAAAAAAAAAAAAAAAAAAAAAAAAAAAAAAAAAAAAAAAAAAAAAAAAAAAAAAAAAAAAAAAAAAAAAAAAAAAAAAAAAAAAAAAAAAAAAAAAAAAAAAAAAAAAAAAAAAAAAAAAAAAAAAAAAAAAAAAAAAAAAAAAAAAAAAAAAAAAAAAAAAAAAAAAAAAAAAAAAAAAAAAAAAAAAAAAAAAAAAAAAAAAAAAAAAAAAAAAAAAAAAAAAAAAAAAAAAAAAAAAAAAAAAAAAAAAAAAAAAAAAAAAAAAAAAAAAAAAAAAAAAAAAAAAAAAAAAAAAAAAAAAAAAAAAAAAAAAAAAAAAAAAAAAAAAAAAAAAAAAAAAAAAAAAAAAAAAAAAAAAAAAAAAAAAAAAAAAAAAAAAAAAAAAAAAAAAAAAAAAAAAAAAAAAAAAAAAAAAAAAAAAAAAAAAAAAAAAAAAAAAAAAAAAAAAAAAAAAAAAAAAAAAAAAAAAAAAAAAAAAAAAAAAAAAAAAAAAAAAAAAAAAAAAAAAAAAAAAAAAAAAAAAAAAAAAAAAAAAAAAAAAAAAAAAAAAAAAAAAAAAAAAAAAAAAAAAAAAAAAAAAAAAAAAAAAAAAAAAAAAAAAAAAAAAAAAAAAAAAAAAAAAAAAAAAAAAAAAAAAAAAAAAAAAAAAAAAAAAAAAAAAAAAAAAAAAAAAAAAAAAAAAAAAAAAAAAAAAAAAAAAAAAAAAAAAAAAAAAAAAAAAAAAAAAAAAAAAAAAAAAAAAAAAAAAAAAAAAAAAAAAAAAAAAAAAAAAAAAAAAAAAAAAAAAAAAAAAAAAAAAAAAAAAAAAAAAAAAAAAAAAAAAAAAAAAAAAAAAAAAAAAAAAAAAAAAAAAAAAAAAAAAAAAAAAAAAAAAAAAAAAAAAAAAAAAAAAAAAAAAAAAAAAAAAAAAAAAAAAAAAAAAAAAAAAAAAAAAAAAAAAAAAAAAAAAAAAAAAAAAAAAAAAAAAAAAAAAAAAAAAAAAAAAAAAAAAAAAAAAAAAAAAAAAAAAAAAAAAAAAAAAAAAAAAAAAAAAAAAAAAAAAAAAAAAAAAAAAAAAAAAAAAAAAAAAAAAAAAAAAAAAAAAAAAAAAAAAAAAAAAAAAAAAAAAAAAAAAAAAAAAAAAAAAAAAAAAAAAAAAAAAAAAAAAAAAAAAAAAAAAAAAAAAAAAAAAAAAAAAAAAAAAAAAAAAAAAAAAAAAAAAAAAAAAAAAAAAAAAAAAAAAAAAAAAAAAAAAAAAAAAAAAAAAAAAAAAAAAAAAAAAAAAAAAAAAAAAAAAAAAAAAAAAAAAAAAAAAAAAAAAAAAAAAAAAAAAAAAAAAAAAAAAAAAAAAAAAAAAAAAAAAAAAAAAAAAAAAAAAAAAAAAAAAAAAAAAAAAAAAAAAAAAAAAAAAAAAAAAAAAAAAAAAAAAAAAAAAAAAAAAAAAAAAAAAAAAAAAAAAAAAAAAAAAAAAAAAAAAAAAAAAAAAAAAAAAAAAAAAAAAAAAAAAAAAAAAAAAAAAAAAAAAAAAAAAAAAAAAAAAAAAAAAAAAAAAAAAAAAAAAAAAAAAAAAAAAAAAAAAAAAAAAAAAAAAAAAAAAAAAAAAAAAAAAAAAAAAAAAAAAAAAAAAAAAAAAAAAAAAAAAAAAAAAAAAAAAAAAAAAAAAAAAAAAAAAAAAAAAAAAAAAAAAAAAAAAAAAAAAAAAAAAAAAAAAAAAAAAAAAAAAAAAAAAAAAAAAAAAAAAAAAAAAAAAAAAAAAAAAAAAAAAAAAAAAAAAAAAAAAAAAAAAAAAAAAAAAAAAAAAAAAAAAAAAAAAAAAAAAAAAAAAAAAAAAAAAAAAAAAAAAAAAAAAAAAAAAAAAAAAAAAAAAAAAAAAAAAAAAAAAAAAAAAAAAAAAAAAAAAAAAAAAAAAAAAAAAAAAAAAAAAAAAAAAAAAAAAAAAAAAAAAAAAAAAAAAAAAAAAAAAAAAAAAAAAAAAAAAAAAAAAAAAAAAAAAAAAAAAAAAAAAAAAAAAAAAAAAAAAAAAAAAAAAAAAAAAAAAAAAAAAAAAAAAAAAAAAAAAAAAAAAAAAAAAAAAAAAAAAAAAAAAAAAAAAAAAAAAAAAAAAAAAAAAAAAAAAAAAAAAAAAAAAAAAAAAAAAAAAAAAAAAAAAAAAAAAAAAAAAAAAAAAAAAAAAAAAAAAAAAAAAAAAAAAAAAAAAAAAAAAAAAAAAAAAAAAAAAAAAAAAAAAAAAAAAAAAAAAAAAAAAAAAAAAAAAAAAAAAAAAAAAAAAAAAAAAAAAAAAAAAAAAAAAAAAAAAAAAAAAAAAAAAAAAAAAAAAAAAAAAAAAAAAAAAAAAAAAAAAAAAAAAAAAAAAAAAAAAAAAAAAAAAAAAAAAAAAAAAAAAAAAAAAAAAAAAAAAAAAAAAAAAAAAAAAAAAAAAAAAAAAAAAAAAAAAAAAAAAAAAAAAAAAAAAAAAAAAAAAAAAAAAAAAAAAAAAAAAAAAAAAAAAAAAAAAAAAAAAAAAAAAAAAAAAAAAAAAAAAAAAAAAAAAAAAAAAAAAAAAAAAAAAAAAAAAAAAAAAAAAAAAAAAAAAAAAAAAAAAAAAAAAAAAAAAAAAAAAAAAAAAAAAAAAAAAAAAAAAAAAAAAAAAAAAAAAAAAAAAAAAAAAAAAAAAAAAAAAAAAAAAAAAAAAAAAAAAAAAAAAAAAAAAAAAAAAAAAAAAAAAAAAAAAAAAAAAAAAAAAAAAAAAAAAAAAAAAAAAAAAAAAAAAAAAAAAAAAAAAAAAAAAAAAAAAAAAAAAAAAAAAAAAAAAAAAAAAAAAAPZYQK1H/RtD/iYKLceQBb38M8NekAnVAptgY8YxC5IrsnbTy/ezymSg9k5glXS1ew41QIcpCBBfCib6r5C1YyYX8rE=</c2pa:manifest></metadata><defs><radialGradient id="mx-gl"><stop offset="0" stop-color="#FFD9A0" stop-opacity=".85"></stop><stop offset=".45" stop-color="#FFD9A0" stop-opacity=".35"></stop><stop offset="1" stop-color="#FFD9A0" stop-opacity="0"></stop></radialGradient><radialGradient id="mx-sph" cx=".42" cy=".28" r=".85"><stop offset="0" stop-color="#fff" stop-opacity=".7"></stop><stop offset=".36" stop-color="#fff" stop-opacity=".08"></stop><stop offset=".55" stop-color="#000" stop-opacity=".04"></stop><stop offset=".8" stop-color="#000" stop-opacity=".4"></stop><stop offset="1" stop-color="#000" stop-opacity=".68"></stop></radialGradient><linearGradient id="mx-under" x1="0" y1="0" x2="0" y2="1"><stop offset="0" stop-color="#000" stop-opacity="0"></stop><stop offset=".6" stop-color="#000" stop-opacity="0"></stop><stop offset="1" stop-color="#000" stop-opacity=".45"></stop></linearGradient><linearGradient id="mx-top" x1="0" y1="0" x2="1" y2="1"><stop offset="0" stop-color="#fff" stop-opacity=".22"></stop><stop offset=".55" stop-color="#fff" stop-opacity="0"></stop><stop offset="1" stop-color="#000" stop-opacity=".16"></stop></linearGradient><linearGradient id="mx-front" x1="0" y1="0" x2="0" y2="1"><stop offset="0" stop-color="#000" stop-opacity=".38"></stop><stop offset="1" stop-color="#000" stop-opacity=".6"></stop></linearGradient><radialGradient id="mx-water" cx=".5" cy=".5" r=".7"><stop offset="0" stop-color="#000" stop-opacity=".18"></stop><stop offset="1" stop-color="#fff" stop-opacity=".1"></stop></radialGradient><radialGradient id="mx-shadow"><stop offset="0" stop-color="#000" stop-opacity=".3"></stop><stop offset=".6" stop-color="#000" stop-opacity=".18"></stop><stop offset="1" stop-color="#000" stop-opacity="0"></stop></radialGradient><filter id="mx-mottle" x="0" y="0" width="100%" height="100%"><feTurbulence type="fractalNoise" baseFrequency=".0045" numOctaves="3" seed="11"></feTurbulence><feColorMatrix type="matrix" values="1 0 0 0 0 1 0 0 0 0 1 0 0 0 0 0 0 0 0 .9"></feColorMatrix></filter><filter id="mx-soft" x="-5%" y="-5%" width="110%" height="110%"><feGaussianBlur stdDeviation="14"></feGaussianBlur></filter><filter id="mx-grain" x="0" y="0" width="100%" height="100%"><feTurbulence type="fractalNoise" baseFrequency=".8" numOctaves="2" seed="3"></feTurbulence><feColorMatrix type="matrix" values="0 0 0 0 .5 0 0 0 0 .5 0 0 0 0 .5 0 0 0 .6 0"></feColorMatrix></filter></defs><g transform="translate(115.19999999999999,140.79999999999998)"><g transform="translate(64,128) scale(1.4) translate(-64,-128)"><ellipse cx="78" cy="124" rx="52" ry="11" fill="url(#mx-shadow)" opacity="1.3636363636363635"></ellipse><path d="M50 128q6-30 4-58q10 6 20 0q2 30 8 58z" fill="#6B4A32" stroke="#000" stroke-opacity=".5" stroke-width="3.5" stroke-linejoin="round"></path><path d="M56 70q4 30 2 58M66 74q2 26 6 54" fill="none" stroke="#000" stroke-opacity=".28" stroke-width="3" stroke-linecap="round"></path><path d="M44 126q8-6 12-2M84 126q-8-6-12-2" fill="none" stroke="#6B4A32" stroke-width="8" stroke-linecap="round"></path><path d="M62 74l-22-20M66 72l18-26M64 70v-30" stroke="#6B4A32" stroke-width="6" stroke-linecap="round"></path><path d="M62 74l-22-20M66 72l18-26M64 70v-30" stroke="#000" stroke-opacity=".4" stroke-width="2" stroke-linecap="round"></path><polygon points="71.99272727272728,53 64.7251010170744,62.887711101614116 53.26751405876118,67.12059785544987 40.990344120213045,74.75245998080328 28.871375450867582,67.51847147759668 24.7703990508478,57.63315848858893 16.83277536003695,46.548898158265196 28.09744912893224,37.78486482386222 41.83129543728245,35.809717028593376 52.77656904339532,39.71791745663147 67.70772717893038,41.61717129229503" fill="#405f2f" stroke="#000" stroke-opacity=".5" stroke-width="3.5" stroke-linejoin="round"></polygon><polygon points="58.005672727272724,45.2 52.637903011139,52.677980218623965 44.02609053337147,55.970561480622486 34.7119507768954,61.51872467553149 25.550163372831214,56.1548973268192 22.338246022698442,48.72286257096476 24.787569904434356,42.238102806577416 24.99293642103777,33.74350481023121 35.31743572518537,32.16604277123412 43.67261012230805,35.03316954407609 54.78539384767531,36.64553510499063" fill="#5F8A45" stroke="#000" stroke-opacity=".5" stroke-width="3.5" stroke-linejoin="round"></polygon><polygon points="70.41381818181819,48.32 65.82811107498704,54.8506737034048 58.34964245369574,57.79857708776754 51.20151973651446,56.99178605946118 42.19411368419814,57.867079324807335 39.30150394065539,51.41154252512123 41.34260717543532,45.69592862283058 41.72975789103694,38.354922456068 50.69694894627281,36.91090773490083 58.05507544447623,39.34453209948126 67.61768677210063,40.89225573294068" fill="#5F8A45" stroke="#000" stroke-opacity=".5" stroke-width="3.5" stroke-linejoin="round"></polygon><polygon points="53.06,40 55.0538635894652,45.69141435385248 48.57017455242939,48.31807189584696 42.28383798205511,47.68270608382398 34.47479824253079,48.30423128661 31.88428016310729,42.7061385342543 33.5851995254239,37.68342075570554 34.087835081563114,31.34743686411945 41.863362323520406,30.036205411477688 48.32470204474646,32.101185760193715 51.574133067299854,36.05288951992017" fill="#85a763" stroke="#000" stroke-opacity=".5" stroke-width="3.5" stroke-linejoin="round"></polygon><polygon points="56.47876363636363,55.6 58.0748130778106,60.5901045220888 52.41714353049435,62.93935682358561 46.859783994292464,62.43669597920147 40.04578146851301,62.86815303413967 37.71853791556147,57.98223296996237 39.14731017990742,53.5449968336039 42.97122296542859,50.965235746345726 46.50658444112331,46.84718967685194 52.21094662404069,48.612819607488554 55.15183943919171,52.07511073188022" fill="#85a763" stroke="#000" stroke-opacity=".5" stroke-width="3.5" stroke-linejoin="round"></polygon><path d="M32 62.1q13 7.8 26 0" fill="none" stroke="#000" stroke-opacity=".25" stroke-width="4" stroke-linecap="round"></path><polygon points="110.70545454545454,46 114.59584805248832,59.33184868446543 99.54702676140516,65.72188014015327 84.58754893245803,64.5126124307456 74.79800760366305,57.88401090680584 60.108411523366215,52.387973259361836 63.77193014989429,40.4510775190132 73.96454848773269,33.365735879380665 83.68190905253712,22.57427386682723 99.01831674485732,27.18113634978048 107.10104385090143,36.42511350519873" fill="#405f2f" stroke="#000" stroke-opacity=".5" stroke-width="3.5" stroke-linejoin="round"></polygon><polygon points="97.4242909090909,37.6 92.37096327975115,43.72105748295456 88.85453048012617,52.44992557366267 77.57262308866117,51.63656932328635 70.05447491116753,46.69667016684593 59.19881182645693,42.40071293355053 61.83654523755715,33.403403626879495 69.45438434769767,27.963147519208356 76.92056237511811,20.02598881096609 88.47385926821173,23.400246299089645 94.68364571909797,30.319651327091915" fill="#5F8A45" stroke="#000" stroke-opacity=".5" stroke-width="3.5" stroke-linejoin="round"></polygon><polygon points="111.55054545454546,40.96 107.21821452183342,46.382906566338114 103.96266807670052,53.87674787201248 94.13517578829381,53.246714747029884 87.4786536230814,48.99071040065971 78.1996394634085,45.12840426696712 80.39775063932535,37.29502620005791 86.97857815352319,32.4791376710522 94.67855971624635,31.62115347442643 103.64544206677182,28.58506202194778 109.14544988795576,34.57101744203395" fill="#5F8A45" stroke="#000" stroke-opacity=".5" stroke-width="3.5" stroke-linejoin="round"></polygon><polygon points="99.86181818181818,32 96.15052192545072,36.78744324740063 93.16657840552436,43.21546480497728 84.62208250225274,42.730240326100954 78.74881512793598,39.06738527412317 76.92831082596587,34.21509405491006 72.6542057616831,28.80601337031909 78.33208556997079,24.55748811897008 85.07490244221319,23.726316525112637 92.90222339725044,21.236043439989608 97.75655139721933,26.407493426242755" fill="#85a763" stroke="#000" stroke-opacity=".5" stroke-width="3.5" stroke-linejoin="round"></polygon><polygon points="103.03447272727273,48.8 99.83212666947382,53.04687005919637 94.87740199808957,54.80758810423131 89.62247555197895,58.22610342492868 84.41495187877547,55.05170998006513 82.7228884860974,50.77814611509695 79.13264023209987,45.99958412209553 84.06489905008472,42.233183670133194 90.00284430154572,41.43740433009073 96.87592586064046,39.37900956381908 101.18119142575945,43.87687674666406" fill="#85a763" stroke="#000" stroke-opacity=".5" stroke-width="3.5" stroke-linejoin="round"></polygon><path d="M74 55.8q14 8.4 28 0" fill="none" stroke="#000" stroke-opacity=".25" stroke-width="4" stroke-linecap="round"></path><polygon points="90.78181818181818,28 82.61256803437198,38.833852191827496 69.97296428084074,43.32547985773292 56.56753967341569,52.046182206450716 43.28304050708029,43.948239745064114 38.966552260452545,33.04629110994121 29.807755694132336,20.856081944121254 42.390048597154895,11.247917525849996 57.53786811618808,9.217868189006971 75.07123944040937,3.96686113219155 86.05405975959044,15.441012108836901" fill="#405f2f" stroke="#000" stroke-opacity=".5" stroke-width="3.5" stroke-linejoin="round"></polygon><polygon points="75.02472727272726,19 68.98700699880027,27.21440614595634 59.46839629497083,30.730958218373747 49.26890126910007,37.07127444559042 39.20083498995153,31.061499381388003 35.79386998070433,22.84908551359696 29.19953645295378,13.640623085328011 38.557880814805245,6.359733853670155 49.967537747896195,4.718841839139117 59.060534282205346,7.965654502432297 71.46488104095755,9.543496150522028" fill="#5F8A45" stroke="#000" stroke-opacity=".5" stroke-width="3.5" stroke-linejoin="round"></polygon><polygon points="89.50545454545454,22.6 84.34413751071058,29.790365594830735 76.06354858978027,32.95630911598316 67.10764497778403,38.29108141878028 58.29823401233771,33.13355512194154 55.209851944902354,25.987367856696878 57.564971061956115,19.75202192940136 57.76243886638247,11.584139240606927 67.68984204344747,10.067348818494336 75.72366357914235,12.824201484688546 86.40903254584165,14.374552985567906" fill="#5F8A45" stroke="#000" stroke-opacity=".5" stroke-width="3.5" stroke-linejoin="round"></polygon><polygon points="76.43636363636364,13 72.02702987979522,19.279493945581542 64.83619466701514,22.114016430545718 57.96299974664852,21.338255826404975 49.302032388652066,22.179883966160894 46.5206768660148,15.972637043385795 48.48327613022627,10.476854445029403 48.855536433689366,3.4181946692961596 57.47783552526232,2.0297189758661798 64.55295715815022,4.369742403347368 73.74777574240446,5.8579382047506545" fill="#85a763" stroke="#000" stroke-opacity=".5" stroke-width="3.5" stroke-linejoin="round"></polygon><polygon points="73.672,31 75.60451394055856,36.51629391219548 69.32032302773925,39.06213122212859 63.227412197991875,38.44631512739863 55.65865060429906,39.04871647779123 53.14784077347322,33.62287273320032 54.79642415541085,28.754700117068445 55.2835940021304,22.613669575992695 62.81987425202746,21.342783706509145 69.08240352029271,23.344226198341598 72.23185204984446,27.174339073153394" fill="#85a763" stroke="#000" stroke-opacity=".5" stroke-width="3.5" stroke-linejoin="round"></polygon><path d="M46 38.5q15 9 30 0" fill="none" stroke="#000" stroke-opacity=".25" stroke-width="4" stroke-linecap="round"></path><polygon points="79.84,54 83.21423068986418,63.63162429113496 72.24183385795743,68.07673705451025 61.60341812347788,67.00150260339443 48.38812010274441,68.0533144850323 44.00416642987388,58.57961905796881 46.88264535071737,50.07963512504014 47.73325936879911,39.35720084697138 60.89184393211145,37.13819377326993 71.82641884495555,40.63277590186628 77.3254559600459,47.32027457217259" fill="#405f2f" stroke="#000" stroke-opacity=".5" stroke-width="3.5" stroke-linejoin="round"></polygon><polygon points="69.9648,47.4 72.27994864034066,54.638393372700236 64.07321918709071,58.04610000783847 56.01199436534731,57.31696559620432 46.12794674553537,57.94281539018061 42.752164888506755,50.85554672565969 44.82466971151407,44.41911628610676 50.371444301500816,40.677045258435555 55.499660947563484,34.70361579499402 63.77412037772935,37.26474932075263 68.0400308348715,42.2869738088812" fill="#5F8A45" stroke="#000" stroke-opacity=".5" stroke-width="3.5" stroke-linejoin="round"></polygon><polygon points="81.30399999999999,50.04 83.13804265331592,56.325014379819415 76.04359833037671,59.33745778035797 68.99127306815878,58.76737443163721 64.376203584584,55.64246228463704 57.45110828958693,53.05147310798487 59.178195642093016,47.42407940182051 63.98328714421683,44.08384691456517 68.56432855333892,38.99644339436141 75.79434932257558,41.16824999346794 79.60477781542495,45.52612493816511" fill="#5F8A45" stroke="#000" stroke-opacity=".5" stroke-width="3.5" stroke-linejoin="round"></polygon><polygon points="72.32,43 69.56272798002296,46.3398627139137 67.64403944848154,51.10263796181991 61.48823680432901,50.658842388697906 57.3860726201807,47.96346090452903 51.46284375451519,45.61943662048888 52.90208321493694,40.7101904710156 57.058642253208056,37.74179676147281 61.132449708645794,33.411005799634275 67.4363319419806,35.252118516368355 70.82460827926973,39.02758752966324" fill="#85a763" stroke="#000" stroke-opacity=".5" stroke-width="3.5" stroke-linejoin="round"></polygon><polygon points="74.9728,56.2 72.59001798700838,59.182598611485965 70.79946744218529,63.304211329606865 65.3943466835616,62.95769311086644 61.73325949269477,60.61689072036284 56.62980170487467,58.492622346831915 57.838762851628935,54.18426441003185 61.458217984437745,51.53552571907871 65.69320784393548,51.06363441093454 70.6249931367245,49.39378411207128 73.64999743837566,52.68605959311868" fill="#85a763" stroke="#000" stroke-opacity=".5" stroke-width="3.5" stroke-linejoin="round"></polygon><path d="M53 61.7q11 6.6 22 0" fill="none" stroke="#000" stroke-opacity=".25" stroke-width="4" stroke-linecap="round"></path><path d="M40 50l-6 4M92 42l6 6M60 20l2-6" stroke="#000" stroke-opacity=".3" stroke-width="3" stroke-linecap="round"></path></g></g></svg>